# xmcd
#
# Track frame offsets:
#	150
#	14551
#	25378
#	41212
#	52621
#	64875
#	80740
#	97604
#	116040
#	137412
#	151246
#	165993
#	186632
#	205099
#	219855
#	233438
#
# Disc length: 3654 seconds
#
# Revision: 0
# Processed by: cddbd v1.5.1PL2 Copyright (c) Steve Scherf et al.
# Submitted via: VUPlayer 2.43
#
DISCID=ca0e4410
DTITLE=Various Artist - Bloom Bar Collection, Vol.1
DYEAR=2006
DGENRE=Rock
TTITLE0=הכובעים - עולם שנעלם
TTITLE1=המצב השלישי - מונטריאול
TTITLE2=פורנו - LA Shit LA Nature
TTITLE3=The Genders - Horatio
TTITLE4=Lady D - פאולינה
TTITLE5=ערופי שפתיים - קרש קפיצה
TTITLE6=תענוג - עבדו עלי
TTITLE7=אוטוביאנקי - יוצא לדרכים
TTITLE8=קאשה באשה - מחזירים עטרה ליושנה
TTITLE9=Joe Mama - Lil'l Story
TTITLE10=דיאודורנט - מרצמבר
TTITLE11=DMA - Down
TTITLE12=שגרירי ישראל בבורה בורה - תסתכלי עלי
TTITLE13=רדיאטור - חוזר
TTITLE14=Riders - Dots
TTITLE15=Wishville - Bite
EXTD=
EXTT0=
EXTT1=
EXTT2=
EXTT3=
EXTT4=
EXTT5=
EXTT6=
EXTT7=
EXTT8=
EXTT9=
EXTT10=
EXTT11=
EXTT12=
EXTT13=
EXTT14=
EXTT15=
PLAYORDER=
